<?xml version="1.0" encoding="UTF-8"?>
<!DOCTYPE svg PUBLIC "-//W3C//DTD SVG 1.1//EN" "http://www.w3.org/Graphics/SVG/1.1/DTD/svg11.dtd">
<!-- Creator: CorelDRAW X6 -->
<svg xmlns="http://www.w3.org/2000/svg" xml:space="preserve" width="270.933mm" height="203.2mm" version="1.1" style="shape-rendering:geometricPrecision; text-rendering:geometricPrecision; image-rendering:optimizeQuality; fill-rule:evenodd; clip-rule:evenodd"
viewBox="0 0 27093 20320"
 xmlns:xlink="http://www.w3.org/1999/xlink">
 <defs>
  <style type="text/css">
   <![CDATA[
    .fil0 {fill:#EC1F26}
   ]]>
  </style>
 </defs>
 <g id="Layer_x0020_1">
  <metadata id="CorelCorpID_0Corel-Layer"/>
  <g id="_1316364880">
   <path class="fil0" d="M333 12759c52,-14 81,-77 112,-117 76,-94 280,-313 403,-313 84,0 143,18 143,129 0,203 -146,555 -203,784 -238,950 -308,2026 -69,2978 117,465 283,909 528,1317 155,257 321,488 519,711l150 164c54,54 99,113 161,154 -6,-70 -107,-367 -133,-497 -28,-143 -43,-447 133,-447 154,0 294,260 397,375 34,38 53,63 86,100 112,129 227,265 357,373 34,29 62,60 93,92 154,156 344,286 532,398 604,362 1491,735 2411,735 662,0 1187,-41 1800,-231 686,-212 1320,-567 1851,-995 218,-176 389,-350 586,-544 288,-285 512,-627 752,-950 45,-60 72,-110 114,-172 155,-229 300,-474 423,-722 24,-49 85,-151 95,-191 -79,-118 -209,-195 -311,-290l-759 -643c-173,-152 -490,-416 -675,-540 -21,40 -36,59 -60,97 -162,257 -333,526 -545,743l-228 258c-105,106 -214,221 -332,312 -271,210 -416,362 -757,531 -362,180 -696,291 -1125,291 -535,0 -954,-188 -1318,-484 -79,-64 -165,-136 -227,-217 -27,-35 -46,-50 -74,-84 -747,-919 -747,-2210 -323,-3274 205,-515 504,-1004 872,-1417l131 -155c45,-58 118,-91 137,-163 -213,-50 -359,-75 -595,-23 -310,69 -609,340 -873,515 -91,60 -337,258 -421,280 87,-372 154,-1140 300,-1445 -163,38 -854,505 -993,609l-221 180c-103,83 -252,237 -333,339l-317 356c-21,25 -40,42 -64,65 -53,52 -78,93 -129,143 -83,83 -169,215 -261,282 0,-435 75,-917 85,-1359 6,-274 129,-628 159,-928 15,-144 21,-186 -87,-259l-175 140c-794,649 -1549,1707 -1684,2722 -6,44 -33,264 -44,285z"/>
   <path class="fil0" d="M7928 10528c0,199 63,375 138,505 214,372 775,555 991,969 210,401 -81,765 479,1481l157 172c67,56 109,97 176,153l1774 1472c112,107 238,199 333,325 785,1037 -209,2123 725,3280 250,310 616,588 1020,682 -13,-48 -33,-55 -68,-89 -201,-197 -318,-565 -318,-855 0,-274 18,-463 120,-709 49,-118 174,-316 266,-378 69,826 478,1473 991,1912 711,608 1646,687 2541,489 352,-78 655,-208 955,-375 100,-56 183,-104 272,-171 133,-100 396,-296 433,-454 -337,162 -861,97 -1228,-16 -193,-60 -387,-139 -559,-242 -38,-23 -164,-111 -187,-142 131,0 294,29 443,29 699,0 1251,-239 1766,-623 44,-33 54,-50 92,-80 452,-364 774,-995 803,-1585 3,-65 17,-81 15,-158 -5,-159 -38,-412 -78,-552 -220,-771 -809,-1360 -1547,-1657 -309,-124 -739,-208 -1151,-208 -95,0 -124,14 -215,14 24,21 14,14 46,26l161 54c181,72 394,204 519,354 196,235 348,487 348,825 0,489 -257,779 -541,989 -64,48 -157,99 -239,132 -54,22 -71,37 -129,57 -286,99 -573,152 -907,152 -131,0 -213,-29 -329,-29 14,-53 66,-73 104,-111 114,-115 201,-234 273,-385 344,-716 86,-1864 -635,-2295 -21,-13 -44,-33 -44,-6 0,3 -1,6 -1,7 9,137 169,505 -112,901 -336,474 -840,512 -1326,253 -185,-99 -435,-324 -602,-471l-1174 -971c-255,-207 -763,-662 -1013,-790 -429,-219 -982,-108 -1212,-218 -314,-150 -198,-746 -434,-1010 -273,-307 -696,-198 -1122,-308 -177,-46 -332,-132 -458,-257 -127,-127 -226,-330 -182,-519 -97,35 -129,350 -129,429z"/>
   <path class="fil0" d="M9201 8282l4 4c0,0 -6,-3 -4,-4zm-1030 -29c118,62 147,55 301,157 110,73 161,126 254,218 135,134 197,236 289,397 30,53 46,116 72,171 -295,0 -505,-124 -634,-296 -117,-158 -257,-452 -282,-648zm1016 0l4 4c0,0 -6,-3 -4,-4zm-3590 -2861c0,326 10,677 108,965 25,74 36,68 95,106l232 168c109,85 214,174 304,282 62,74 124,147 176,225 49,75 113,161 153,248 31,67 98,220 105,296l-66 -106c-419,-644 -1337,-989 -1957,-1404 -77,-52 -137,-96 -212,-146l-201 -157c-185,-177 -365,-332 -496,-562 -44,-76 -93,-149 -115,-243l-29 0c-58,249 -72,332 -72,601 0,160 42,345 81,477 41,140 152,300 177,395 -612,-143 -856,-143 -1531,-143l294 206c246,194 650,575 650,895 0,258 -597,547 -806,653l-781 435c-195,117 -403,248 -569,403 -42,39 -105,77 -118,125 56,-27 473,-83 572,-86 213,-6 415,-15 610,35 651,165 686,641 552,1228 -24,104 -64,403 -103,483 44,-12 211,-177 254,-218 191,-182 615,-463 852,-592 209,-114 409,-236 630,-328 152,-63 557,-235 738,-235 -44,-60 -363,-107 -437,-120 -166,-31 -320,-65 -492,-65 176,-263 631,-504 923,-621 340,-137 840,-251 1308,-251 178,0 395,43 515,43l0 14c-494,0 -1314,213 -1742,503 -16,11 -26,17 -42,30 -18,14 -32,26 -47,39l698 160c64,17 163,63 232,69l-399 245 -349 309c-161,161 -309,355 -411,561 -18,35 -34,64 -51,106 -19,45 -31,85 -49,123 95,-8 292,-229 901,-229 296,0 551,88 735,209 448,291 548,849 342,1326 -43,100 -111,220 -173,299 -61,76 -237,215 -246,226 350,0 463,-25 787,-100l-117 226c-48,74 -99,123 -153,191 -55,68 -113,108 -177,166 -57,52 -171,92 -211,147 622,0 1326,-339 1690,-799 35,-45 113,-172 127,-231 -181,4 -384,100 -552,-49 -158,-140 -15,-785 66,-952 -130,35 -114,186 -343,186 -61,0 -109,-37 -134,-80 -143,-245 30,-637 122,-862 23,-56 86,-157 98,-202 -46,-4 -68,-16 -103,-26l-758 -101c-58,-5 -71,11 -126,13 3,-2 8,-8 9,-5l71 -29c39,-11 64,-16 103,-26 563,-139 1428,-277 1990,-154 227,50 287,104 287,328 0,189 -158,439 -229,572 487,0 1141,-13 1416,371 241,336 103,631 100,773 201,-47 487,-367 611,-533 55,-73 106,-153 151,-235 213,-384 339,-797 339,-1263 0,-112 -14,-163 -14,-272 -34,12 -19,5 -39,33l-84 145c-103,148 -329,379 -521,394 0,-226 -89,-373 -256,-473 -50,-30 -96,-64 -173,-70l29 -329c0,-705 -442,-1254 -833,-1699 -100,-113 -205,-226 -321,-322l-594 -550c-24,-24 -40,-43 -65,-64 -534,-470 -1167,-1186 -1306,-1883 -34,-168 -42,-264 -42,-473 -66,18 -100,127 -125,190 -109,276 -161,562 -161,883 0,165 46,453 118,540 25,31 51,48 78,79l680 650c37,34 56,41 93,78 31,31 53,58 86,86 259,228 527,487 741,761 151,192 432,581 492,838l-397 -533c-130,-134 -250,-286 -394,-407l-557 -501c-23,-22 -33,-36 -58,-57 -29,-24 -35,-24 -64,-51 -262,-243 -536,-476 -772,-744 -22,-25 -40,-41 -64,-64 -160,-158 -287,-343 -422,-523 -317,-421 -447,-869 -447,-1426 -265,177 -415,1127 -415,1459z"/>
   <path class="fil0" d="M2636 4106c0,483 91,1041 291,1440 51,103 144,308 224,362 0,-73 -14,-78 -14,-157 0,-320 -16,-506 84,-817 49,-154 87,-291 139,-447 51,-152 92,-291 143,-443l148 -438c15,66 37,102 63,166l405 969c67,169 133,303 241,446l103 126c38,43 74,78 118,111 181,138 263,246 529,386 0,-95 -14,-124 -14,-215 0,-496 70,-958 209,-1379l88 -227c16,-79 -4,-220 5,-309 52,-482 281,-969 681,-1235 321,-214 484,-254 890,-254 94,0 243,25 323,49 102,29 185,64 264,108 174,96 292,195 412,346 116,146 196,296 265,493 208,596 106,1381 -173,1913 -52,98 -22,112 116,290l291 339c215,212 415,417 636,622l329 300c35,35 51,40 86,71 75,66 164,181 240,232 40,-76 99,-137 146,-212 173,-275 246,-401 398,-704 308,-616 629,-1646 523,-2368 -67,-457 -80,-713 -289,-1184 -82,-184 -152,-319 -249,-481 -40,-67 -96,-152 -142,-215 -152,-210 -338,-399 -533,-569 -130,-114 -277,-222 -430,-313l-481 -248 -552 -191c-1260,-315 -2641,-208 -3747,470 -604,370 -1091,921 -1408,1553 -209,418 -358,989 -358,1616z"/>
   <path class="fil0" d="M14236 8454c-385,0 243,-775 257,-830l-562 396c-39,31 -49,39 -85,72l-171 158c-64,59 -79,57 -165,150 -343,371 -664,770 -918,1213 -148,257 -311,590 -387,915 56,-15 140,-146 182,-190 579,-602 1265,-1074 2031,-1402 580,-249 1218,-425 1863,-425 94,0 139,14 243,14l0 14c-343,0 -614,79 -895,149 -607,151 -1268,507 -1782,850l-884 689c-53,40 -81,81 -135,123l-1256 1376c-22,27 -36,46 -56,73 -24,31 -45,49 -55,88 222,19 562,300 734,439l558 458c30,25 58,52 96,62 4,-45 107,-257 133,-310l476 -883c59,-100 105,-182 166,-277 244,-378 744,-1118 1059,-1430 41,-40 73,-76 114,-114 29,-27 35,-27 64,-51 603,-507 1503,-734 2292,-480 303,97 334,167 502,256l212 -146c66,-41 162,-86 237,-121 292,-136 797,-276 1127,-332 105,-18 208,-31 314,-44 418,-49 777,-54 1186,42 -14,-51 -48,-69 -82,-104l-208 -193c-42,-41 -62,-56 -107,-93 -793,-647 -1867,-1104 -2910,-986 -496,56 -1188,317 -1270,317 -120,0 -200,13 -200,-143 0,-158 196,-301 296,-376l419 -268c-309,0 -659,149 -896,276 -56,30 -98,58 -152,91 -100,59 -192,126 -282,190 -41,30 -87,68 -129,100l-392 323c-114,90 -418,364 -580,364z"/>
  </g>
 </g>
</svg>
